<?xml version="1.0" standalone="no"?>
<!DOCTYPE svg PUBLIC "-//W3C//DTD SVG 20010904//EN"
 "http://www.w3.org/TR/2001/REC-SVG-20010904/DTD/svg10.dtd">
<svg version="1.0" xmlns="http://www.w3.org/2000/svg"
 width="512.000000pt" height="512.000000pt" viewBox="0 0 512.000000 512.000000"
 preserveAspectRatio="xMidYMid meet">
<metadata>
Created by potrace 1.14, written by Peter Selinger 2001-2017
</metadata>
<g transform="translate(0.000000,512.000000) scale(0.100000,-0.100000)"
fill="#000000" stroke="none">
<path d="M2200 5000 c0 -3 -9 -6 -21 -7 -31 -3 -109 -52 -109 -69 0 -18 25
-46 34 -37 3 4 6 1 6 -5 0 -7 9 -12 20 -12 11 0 20 -4 20 -9 0 -6 8 -8 18 -7
9 2 37 -5 62 -15 36 -14 40 -18 20 -19 -51 -1 -80 -5 -80 -10 0 -3 -11 -7 -24
-8 -13 -1 -46 -9 -73 -18 -26 -9 -55 -18 -63 -19 -8 -2 -16 -4 -17 -5 -2 -2
-6 -3 -10 -4 -45 -12 -296 -135 -301 -148 -2 -4 -8 -8 -13 -8 -11 0 -95 -57
-151 -103 -121 -98 -206 -179 -273 -262 -26 -33 -51 -62 -55 -65 -3 -3 -18
-24 -32 -48 -13 -23 -28 -39 -32 -35 -4 5 -7 4 -5 -2 3 -12 -12 -48 -22 -55
-7 -5 -103 -190 -104 -200 0 -3 -4 -11 -8 -17 -5 -7 -5 -13 -1 -13 4 0 0 -8
-8 -17 -8 -10 -16 -25 -16 -33 0 -8 -9 -39 -20 -68 -11 -29 -21 -54 -21 -55 0
-1 -2 -9 -5 -17 -8 -24 -37 -162 -42 -195 -2 -16 -6 -52 -10 -80 -4 -27 -7
-133 -9 -235 -1 -102 -4 -194 -8 -205 -3 -11 -8 -42 -12 -70 -8 -71 -14 -85
-30 -78 -8 3 -13 8 -10 13 2 4 -6 13 -19 20 -13 7 -30 23 -37 36 -16 31 -23
30 -48 -3 -12 -16 -26 -34 -31 -40 -6 -7 -8 -13 -5 -13 3 0 1 -6 -5 -12 -38
-46 -50 -62 -50 -69 0 -4 -6 -14 -14 -21 -7 -8 -21 -28 -30 -46 -9 -18 -21
-32 -26 -32 -6 0 -10 -4 -10 -9 0 -18 -45 -80 -57 -81 -7 0 -13 8 -13 18 0 10
-3 22 -7 26 -4 4 -19 37 -34 73 l-25 65 -23 -79 c-131 -464 -91 -929 119
-1368 19 -38 38 -71 42 -73 4 -2 8 -12 8 -23 0 -10 4 -19 9 -19 5 0 11 -8 15
-17 6 -19 27 -54 37 -63 3 -3 14 -20 24 -37 11 -18 23 -33 27 -33 4 0 8 -6 8
-13 0 -7 8 -22 18 -33 9 -10 45 -53 79 -94 83 -102 172 -190 297 -295 47 -39
96 -75 105 -75 5 0 11 -3 13 -8 5 -13 91 -72 104 -72 7 0 14 -4 16 -8 3 -9
127 -81 176 -103 17 -7 32 -17 32 -21 0 -5 3 -7 8 -6 4 1 25 -7 47 -17 22 -10
45 -19 50 -20 6 -2 33 -13 60 -26 28 -12 55 -23 60 -23 6 -1 46 -13 90 -28 81
-27 216 -63 270 -72 17 -2 44 -7 60 -10 123 -23 212 -30 415 -30 209 -1 317 7
455 34 28 5 64 12 80 15 17 2 77 18 135 35 58 17 112 32 120 34 26 7 178 65
197 75 34 18 91 41 101 41 6 0 12 4 14 8 2 4 44 30 93 56 100 54 295 184 295
198 0 4 6 8 13 8 29 0 290 259 357 354 8 12 23 30 33 41 10 11 25 32 33 48 8
15 20 27 26 27 6 0 9 3 5 6 -3 3 10 29 30 57 35 50 153 277 153 295 0 5 7 23
16 41 9 17 17 38 18 46 1 8 5 18 9 21 4 4 7 13 7 20 0 7 5 25 12 41 6 15 12
34 14 42 1 7 8 36 15 65 7 28 14 60 15 71 1 11 3 20 4 20 4 0 16 81 27 180 7
67 7 301 -1 355 -13 88 -18 126 -20 145 -1 11 -5 26 -10 33 -4 7 -6 16 -3 19
3 3 1 17 -5 32 -5 14 -11 36 -13 49 -1 13 -7 28 -14 35 -8 8 -11 4 -11 -16 0
-15 -4 -27 -10 -27 -5 0 -10 -8 -10 -19 0 -10 -9 -40 -19 -67 -31 -80 -34 -89
-32 -97 5 -25 -18 10 -44 65 -17 35 -33 65 -37 66 -5 2 -8 8 -8 14 0 14 -63
141 -73 149 -5 3 -9 10 -9 15 -1 15 -22 59 -31 65 -5 3 -9 10 -9 15 -1 15 -42
99 -50 102 -5 2 -8 10 -8 18 0 7 -23 -11 -52 -41 -46 -49 -62 -58 -64 -37 0
10 -14 100 -20 142 -3 19 -7 118 -9 220 -1 102 -5 199 -8 215 -3 17 -8 50 -11
75 -3 25 -8 54 -10 65 -11 52 -30 124 -43 165 -8 25 -17 54 -19 65 -2 11 -8
21 -14 23 -6 2 -8 7 -5 12 16 26 -168 369 -240 446 -11 12 -30 35 -42 50 -42
56 -179 190 -248 244 -38 30 -72 57 -75 61 -3 3 -24 16 -47 29 -24 13 -43 27
-43 32 0 4 -4 8 -9 8 -4 0 -40 17 -78 38 -87 48 -257 117 -353 143 -57 16 -47
14 -102 23 -27 4 -48 12 -48 17 0 6 5 7 10 4 6 -3 10 -1 10 4 0 6 3 10 8 9 33
-8 152 45 152 69 0 19 -39 55 -51 47 -5 -3 -9 -1 -9 5 0 9 -21 18 -62 27 -5 1
-9 3 -10 4 -7 7 -118 4 -118 -3 0 -4 -4 -6 -8 -3 -9 5 -122 -45 -144 -64 -7
-5 -29 -24 -48 -40 -19 -16 -37 -30 -40 -30 -3 0 -23 16 -45 35 -41 36 -154
101 -168 97 -4 -1 -17 3 -29 9 -16 9 -19 8 -13 -2 6 -9 4 -10 -6 -3 -15 10
-99 13 -99 4z"/>
</g>
</svg>
